<?xml version="1.0" encoding="UTF-8"?>
<svg id="Capa_2" data-name="Capa 2" xmlns="http://www.w3.org/2000/svg" viewBox="0 0 5228.06 990.18">
  <defs>
    <style>
      .cls-1 {
        fill: #504e4f;
      }
    </style>
  </defs>
  <g id="Capa_1-2" data-name="Capa 1">
    <g>
      <path class="cls-1" d="M1763.88,681.66c0,44.4-23.46,66.61-70.31,66.61h-46.27l-10.16,63.83c7.4,3.1,16.48,5.55,27.28,7.4,10.78,1.85,22.05,3.24,33.78,4.16,11.71.93,21.89,1.39,30.52,1.39,40.72,0,72.16-11.87,94.37-35.63,22.21-23.72,33.3-58.74,33.3-104.99V164.53h-92.5v517.14Z"/>
      <path class="cls-1" d="M2281.02,171.45c-6.18-4.63-13.28-6.92-21.28-6.92h-94.37c-8.01,0-15.11,2.29-21.27,6.92-6.18,4.63-10.5,10.64-12.96,18.04l-201.68,635.56h95.28l61.01-205.38h252.66l61.01,205.38h96.2l-201.68-635.56c-2.46-7.4-6.78-13.42-12.94-18.04M2108.57,542.89l75.3-253.48c3.08-9.25,5.85-18.51,8.33-27.76,2.46-9.25,4.93-17.88,7.4-25.91h25.89c2.47,8.03,4.93,16.66,7.4,25.91,2.46,9.25,4.93,18.51,7.4,27.76l75.3,253.48h-207.03Z"/>
      <path class="cls-1" d="M2721.36,747.35c-20.36,0-35.48-4.77-45.34-14.34-9.88-9.56-14.79-24.18-14.79-43.94V164.53h-91.59v538.42c0,35.15,10.18,64.29,30.52,87.43,20.36,23.12,53.97,34.68,100.85,34.68,42.55,0,85.11-.32,127.66-.93s84.49-2.46,125.81-5.55l-4.63-71.24h-228.49Z"/>
      <polygon class="cls-1" points="3093.25 164.53 2890.65 164.53 2890.65 244.07 3093.25 244.07 3093.25 825.06 3185.75 825.06 3185.75 244.07 3389.28 244.07 3389.28 164.53 3185.75 164.53 3093.25 164.53"/>
      <path class="cls-1" d="M3578.93,255.18c8.63-9.25,22.21-13.88,40.72-13.88h254.4l3.7-71.24c-28.38-1.85-58.14-3.24-89.28-4.15-31.14-.92-62.76-1.39-94.81-1.39h-94.37c-38.24,0-68.62,10.16-91.13,30.52-22.51,20.36-34.08,48.1-34.68,83.27v432.96c.6,34.54,12.17,62.14,34.68,82.78,22.51,20.68,52.89,31,91.13,31,30.84,0,62.28-.16,94.37-.46,32.05-.32,63.67-.77,94.81-1.39,31.14-.61,60.9-1.85,89.28-3.7l-3.7-70.31h-254.4c-18.51,0-32.08-4.77-40.72-14.34-8.63-9.56-12.94-24.5-12.94-44.86v-176.71h271.97v-71.22h-271.97v-142.47c0-20.36,4.31-35.16,12.94-44.42"/>
      <path class="cls-1" d="M4316.71,741.33c-27.46,1.55-61.22,2.31-101.31,2.31s-70.61-7.71-93.43-23.13c-22.83-15.41-39.02-41.16-48.56-77.23-9.57-36.09-14.34-85.58-14.34-148.48s4.77-112.41,14.34-148.49c9.54-36.07,25.73-61.82,48.56-77.25,22.81-15.41,53.96-23.13,93.43-23.13,25.29,0,47.03.32,65.22.93,18.19.62,35.31,1.39,51.36,2.31,16.02.93,33.3,2.31,51.8,4.16l9.25-69.38c-17.9-4.93-35.16-8.77-51.8-11.55-16.66-2.78-34.86-4.77-54.6-6.02-19.73-1.23-43.47-1.85-71.23-1.85-61.68,0-111.17,10.64-148.47,31.91-37.33,21.28-64.29,55.97-80.95,104.09-16.66,48.1-24.98,112.86-24.98,194.27s8.33,146.17,24.98,194.27c16.66,48.1,43.62,82.8,80.95,104.07,37.3,21.28,86.79,31.93,148.47,31.93,42.57,0,78.17-1.71,106.86-5.09,28.67-3.4,56.57-9.09,83.73-17.12l-9.25-69.38c-25.91,3.7-52.58,6.34-80.03,7.87"/>
      <polygon class="cls-1" points="4879.63 434.66 4598.39 434.66 4598.39 164.53 4505.89 164.53 4505.89 825.06 4598.39 825.06 4598.39 511.45 4879.63 511.45 4879.63 825.06 4973.07 825.06 4973.07 164.53 4879.63 164.53 4879.63 434.66"/>
      <path class="cls-1" d="M5227.68,201.57c-.3-2.44-1-5.04-2.14-7.78-1.19-2.74-2.89-5.53-5.17-8.35-2.29-2.82-5.39-5.34-9.28-7.61-3.89-2.22-8.71-4.07-14.46-5.54-5.79-1.45-12.77-2.22-20.98-2.24l-13.62-.03-7.34-.03-4.32-.02-16.66-.03c-12.27-.05-21.87,1.45-28.88,4.46-6.99,3.02-12.27,6.56-15.82,10.65-3.52,4.11-5.74,8.25-6.59,12.42-.92,4.17-1.37,7.43-1.37,9.75l-.13,41.5v1.72l-.12,41.52c-.02,2.3.42,5.56,1.3,9.75.83,4.17,3.04,8.31,6.53,12.45,3.54,4.12,8.78,7.68,15.76,10.75,6.99,3.05,16.58,4.59,28.86,4.62l10.17.03,11,.03,9.3.03,11.47.03c8.21.02,15.21-.68,21-2.1,5.76-1.44,10.6-3.26,14.51-5.48,3.89-2.22,7.01-4.74,9.31-7.55,2.3-2.79,4.02-5.58,5.23-8.31,1.15-2.72,1.87-5.32,2.17-7.78.28-2.44.42-4.46.43-6.04l.12-42.38.13-42.37c0-1.6-.12-3.62-.38-6.08M5213.57,215.81l-.1,33.95v.42l-.12,33.95v2.17c0,2.02-.28,4.64-.9,7.88-.57,3.24-2.09,6.39-4.56,9.4-2.47,3.02-6.23,5.59-11.27,7.76-5.06,2.14-12.07,3.19-21,3.17l-21.83-.07-20.97-.07c-8.93-.02-15.93-1.14-20.97-3.29-5.04-2.2-8.78-4.79-11.22-7.83-2.44-3.02-3.94-6.19-4.51-9.43-.57-3.24-.85-5.86-.85-7.88l.02-2.17.1-32.43v-3.45l.1-32.45v-2.14c.02-2.02.32-4.66.9-7.91.58-3.22,2.1-6.36,4.56-9.36,2.45-3.04,6.21-5.61,11.27-7.76,5.06-2.14,12.05-3.21,20.98-3.17l21.85.07,20.95.05c8.95.03,15.94,1.14,20.98,3.3,5.02,2.19,8.78,4.79,11.23,7.83,2.45,3.02,3.94,6.16,4.49,9.4.6,3.26.87,5.89.85,7.91v2.15Z"/>
      <path class="cls-1" d="M5183.94,212.47c-2.3-2.74-5.74-5.11-10.35-7.04-4.59-1.95-10.95-2.95-19.01-2.97-8.06-.03-14.44.93-19.03,2.95-4.64,2-8.08,4.32-10.4,6.99-2.34,2.67-3.76,5.36-4.37,8.1-.55,2.74-.85,4.91-.87,6.49v4.76l-.2,62.93,17.29.05.07-18.83v-.43c0-2.02.52-3.67,1.5-4.96,1.02-1.3,2.12-2.3,3.26-3.02,1.45-.88,3.04-1.5,4.77-1.94.98-.28,2.24-.7,3.69-1.27,1.14-.43,2.49-.92,3.99-1.4,1.52-.52,3.07-1.04,4.66-1.62l11.79,33.57,18.18.05-13.72-39.41c4.34-2.27,7.58-4.99,9.73-8.1,2.2-3.05,3.49-6.41,3.92-10.02v-.64c.17-.6.25-1.39.25-2.4l.02-1.94.02-5.19c0-1.59-.32-3.74-.85-6.49-.58-2.74-2.02-5.48-4.32-8.23M5171.76,232.99c-.25,1.59-.94,3.27-2.04,5.08-1.09,1.8-3.07,3.21-5.96,4.19-.72.28-1.47.58-2.29.85-.77.32-1.62.58-2.49.85-3.32,1.15-7.18,2.52-11.57,4.09-4.41,1.57-7.83,2.79-10.28,3.64l.05-19.46.02-1.94c0-1.15.17-2.45.55-3.91.37-1.4,1.1-2.8,2.29-4.09,1.15-1.3,2.85-2.4,5.07-3.34,2.25-.92,5.24-1.39,8.98-1.37,3.46,0,6.28.37,8.43,1.1,2.17.72,3.91,1.64,5.29,2.72,1.37,1.07,2.34,2.25,2.92,3.46.55,1.24.92,2.44,1.03,3.57l-.02,4.56Z"/>
      <path class="cls-1" d="M1455.42,979.35c-.06-.02-.12-.04-.18-.05-176.2-56.05-210.83-300.79-210.83-300.79l-109.99-532.53C1101.06,0,966.18.08,957.04.08h-98.84l.04-.08h-335.86c-.23,0-.44.03-.63.08-1.92.52-2.24,3.4-.16,4.21,89.33,34.95,113.22,158.42,113.95,162.27,0,.06.02.09.02.09l.03.11,49.71,243.48,60.64,297.5c50.33,287.88,304.04,282.44,304.04,282.44h404.03c6.41,0,7.61-9.07,1.44-10.83"/>
      <path class="cls-1" d="M585.3,143.83c-5.67-22.35-12.92-39.33-21.14-55.23h.01c-3.52-7.42-7.42-14.21-11.59-20.43,0,0-.01-.02-.03-.05-.04-.06-.12-.19-.24-.38-.08-.11-.15-.22-.22-.33-5.86-9-64.12-94.21-147.04-58.03-.12.04-.24.1-.36.15-33.47,14.73-55.69,37.49-70.37,60-.08.13-.17.27-.25.4-11.27,17.37-18.05,34.56-22.06,47.77-1.17,3.85-4.82,19.25-9.53,39.74-12.35,53.65-32.03,140.34-33.69,147.8-.07.33-.11.5-.11.5l-51.6,252.81s-.01.09-.04.26c-.59,3.7-7.66,46.89-21.26,104.11-25.99,109.3-60.43,268.32-150.26,303.9-10.13,4.49-21.44,7.93-33.96,10.64-2.16.47-6.77,1.38-6.91,1.4-6.8,1.33-5.88,11.32,1.06,11.32,96.88,0,397.22-.44,397.22-.44,242.28-10.34,285.46-241.98,292.25-295.98.87-6.94.58-13.97-.83-20.83-26.67-129.22-108.03-525.09-109.05-529.1"/>
    </g>
  </g>
</svg>